<svg id="Layer_1" data-name="Layer 1" xmlns="http://www.w3.org/2000/svg" viewBox="0 0 428 173.33"><defs><style>.cls-1{fill:#4266b0;}.cls-2{fill:#80817b;}</style></defs><title>NF_logo</title><path class="cls-1" d="M96.91,47.5H85a1.71,1.71,0,0,0-1.7,1.71V63.77L74,51.51a10.17,10.17,0,0,0-8.09-4H56.67A5.54,5.54,0,0,0,51.13,53V89.42A5.54,5.54,0,0,0,56.67,95H68.59a1.71,1.71,0,0,0,1.7-1.71V78.54l9.28,12.35A10.2,10.2,0,0,0,87.71,95h9.2a5.54,5.54,0,0,0,5.54-5.54V53A5.54,5.54,0,0,0,96.91,47.5Zm-29.86,44H56.63a2.19,2.19,0,0,1-2.19-2.19V57.83L67.05,74.41Zm30.06,0H87.67a6.83,6.83,0,0,1-5.42-2.68l-27-35.29a1.65,1.65,0,0,1,1.31-2.64h9.4a6.83,6.83,0,0,1,5.41,2.67l27.07,35.3A1.64,1.64,0,0,1,97.11,91.52Zm2.06-7L86.56,68V50.91H97a2.19,2.19,0,0,1,2.19,2.19Z"/><path class="cls-1" d="M165.89,90.89h-7.57L139.47,69.32V90.89H129.7V51.57h7.46l19,22.15V51.57h9.77Z"/><path class="cls-1" d="M196.38,79.44l0,.17H176.44a6,6,0,0,0,6.3,4.51,4.84,4.84,0,0,0,4.28-2h9.25c-1.33,5.78-6.71,9.42-13.65,9.42-9.19,0-15.32-6.13-15.32-14.68s6-14.63,14.92-14.63c8.15,0,14.33,5.61,14.33,14.05A20,20,0,0,1,196.38,79.44Zm-20.06-5.32h11.45a5.2,5.2,0,0,0-5.55-4.68A5.73,5.73,0,0,0,176.32,74.12Z"/><path class="cls-1" d="M228.54,90.89h-9.37V89.32a14,14,0,0,1-7.69,2.14c-7.57,0-13.93-6.3-13.93-14.62s6.36-14.63,13.93-14.63a14,14,0,0,1,7.69,2.14v-1.5h9.37Zm-9.37-9.72V72.5a7.27,7.27,0,0,0-5.84-2.66,7,7,0,0,0,0,13.94A7.19,7.19,0,0,0,219.17,81.17Z"/><path class="cls-1" d="M249.73,71.29c-4.57.17-7.46,1.39-9.66,3.58v16h-9.36v-28h9.36v3a14,14,0,0,1,9.66-3.46Z"/><path class="cls-1" d="M280.36,60.19V51.58H251V90.89h9.78V77h14.66v-.17a17,17,0,0,1,2.09-8.33H260.82V60.19Z"/><path class="cls-1" d="M327.57,71.29c-4.57.17-7.46,1.39-9.66,3.58v16h-9.36v-28h9.36v3a14,14,0,0,1,9.66-3.46Z"/><path class="cls-1" d="M375.67,74.87v16h-9.43V76.38c0-4-1.9-5.9-5-5.9a5.44,5.44,0,0,0-4.27,2.31c.05.69.11,1.39.11,2.08v16h-9.36V76.38c0-4-2-5.9-5-5.9-1.45,0-2.84.69-4.22,2.49V90.89h-9.37v-28h9.37v1.68a9.84,9.84,0,0,1,7-2.55,11,11,0,0,1,8.62,3.76A13.68,13.68,0,0,1,364,62C370.69,62,375.67,66.9,375.67,74.87Z"/><path class="cls-1" d="M307.39,76.84c0,8.55-6.36,14.91-15.2,14.91S277,85.39,277,76.84s6.35-14.63,15.2-14.63S307.39,68.4,307.39,76.84Zm-8.84.06a6.34,6.34,0,1,0-12.66,0c0,3.75,2.54,6.76,6.36,6.76S298.55,80.65,298.55,76.9Z"/><path class="cls-2" d="M53,112.27h7.9v2.11H55.27v3.27h4.85v2.09H55.27v3.49h5.82v2.11H53Z"/><path class="cls-2" d="M61.84,115.56h2.32l2.42,7.69h.17l2.41-7.69h2.37l-3.34,9.78h-3Z"/><path class="cls-2" d="M71.79,120.45A5.17,5.17,0,1,1,77,125.58,5,5,0,0,1,71.79,120.45Zm8.09,0a2.93,2.93,0,1,0-2.93,3A2.9,2.9,0,0,0,79.88,120.45Z"/><path class="cls-2" d="M83.43,123.4h1.83V113.3H83.43v-2h4V123.4h1.83v1.94H83.43Z"/><path class="cls-2" d="M91.06,122v-6.4h2.21v5.82a2,2,0,0,0,2,2.06,2.11,2.11,0,0,0,2.13-2.17v-5.71h2.2v9.78h-2.2v-1.12h-.17a2.92,2.92,0,0,1-2.64,1.36A3.43,3.43,0,0,1,91.06,122Z"/><path class="cls-2" d="M103,122.41V117.5h-1.7v-1.94h1.83v-2.75h2.09v2.75h2.76v1.94h-2.76v4.89c0,.69.28,1,.95,1h1.7v2h-1.72C104.21,125.34,103,124.48,103,122.41Z"/><path class="cls-2" d="M111,117.5h-1.72v-1.94h3.92v9.78H111Zm-.28-4.84a1.4,1.4,0,1,1,1.4,1.39A1.36,1.36,0,0,1,110.69,112.66Z"/><path class="cls-2" d="M115.17,120.45a5.17,5.17,0,1,1,5.15,5.13A5,5,0,0,1,115.17,120.45Zm8.09,0a2.93,2.93,0,1,0-5.85,0,2.93,2.93,0,1,0,5.85,0Z"/><path class="cls-2" d="M127.27,115.56h2.2v1.12h.17a2.92,2.92,0,0,1,2.64-1.36,3.43,3.43,0,0,1,3.51,3.62v6.4h-2.21v-5.88a2,2,0,0,0-2-2.06,2.11,2.11,0,0,0-2.13,2.17v5.77h-2.2Z"/><path class="cls-2" d="M137.37,120.45c0-3,1.94-5.13,4.56-5.13a3.49,3.49,0,0,1,3,1.43h.17v-1.19h2.2v7.49a.4.4,0,0,0,.45.43h.43v1.86h-1.66a1.34,1.34,0,0,1-1.41-1.23h-.16a3.29,3.29,0,0,1-2.94,1.47C139.35,125.58,137.37,123.42,137.37,120.45Zm7.73,0a2.77,2.77,0,0,0-2.74-3,2.81,2.81,0,0,0-2.75,3,2.76,2.76,0,1,0,5.49,0Z"/><path class="cls-2" d="M149.83,115.56H152V117h.15a2.91,2.91,0,0,1,2.58-1.68h.73v2.2h-1c-1.61,0-2.47,1.14-2.47,3v4.83h-2.2Z"/><path class="cls-2" d="M157.26,127.62h1.4a1.25,1.25,0,0,0,1.29-.91l.54-1.37H160l-3.36-9.78H159l2.29,7.67h.17l2.54-7.67h2.39l-4.59,12.16a3,3,0,0,1-3.1,1.92h-1.4Z"/><path class="cls-2" d="M171.49,122.56l2.09-.47a1.78,1.78,0,0,0,1.94,1.52c1.07,0,1.63-.4,1.63-1,0-2-5.31-.32-5.31-4.29,0-1.67,1.38-3,3.61-3a3.46,3.46,0,0,1,3.71,2.7l-2,.54a1.58,1.58,0,0,0-1.75-1.25c-.94,0-1.5.41-1.5,1,0,1.83,5.46.11,5.46,4.06,0,1.92-1.54,3.22-3.94,3.22C173.34,125.58,171.75,124.56,171.49,122.56Z"/><path class="cls-2" d="M180.62,120.45a5.17,5.17,0,1,1,5.15,5.13A5,5,0,0,1,180.62,120.45Zm8.08,0a2.92,2.92,0,1,0-2.93,3A2.9,2.9,0,0,0,188.7,120.45Z"/><path class="cls-2" d="M193.5,117.5h-1.71v-1.94h1.71v-1.29c0-2.08,1.26-2.93,3.14-2.93h1.64v1.92h-1.6c-.69,0-1,.34-1,1v1.27h2.63v1.94h-2.63v7.84H193.5Z"/><path class="cls-2" d="M201,122.41V117.5h-1.7v-1.94h1.83v-2.75h2.09v2.75H206v1.94h-2.77v4.89c0,.69.28,1,1,1h1.7v2h-1.72C202.22,125.34,201,124.48,201,122.41Z"/><path class="cls-2" d="M207.26,115.56h2.36l1.75,7.69h.17l1.79-7.69h2.94l1.77,7.69h.17l1.77-7.69h2.34l-2.6,9.78h-3.1l-1.77-7.67h-.12L213,125.34h-3.12Z"/><path class="cls-2" d="M222.58,120.45c0-3,1.94-5.13,4.55-5.13a3.48,3.48,0,0,1,3,1.43h.17v-1.19h2.2v7.49a.4.4,0,0,0,.45.43h.43v1.86h-1.66a1.33,1.33,0,0,1-1.4-1.23h-.17a3.25,3.25,0,0,1-2.93,1.47C224.56,125.58,222.58,123.42,222.58,120.45Zm7.73,0a2.76,2.76,0,1,0-2.73,3A2.77,2.77,0,0,0,230.31,120.47Z"/><path class="cls-2" d="M235,115.56h2.19V117h.15a2.88,2.88,0,0,1,2.57-1.68h.73v2.2h-1c-1.61,0-2.46,1.14-2.46,3v4.83H235Z"/><path class="cls-2" d="M241.31,120.47a4.92,4.92,0,0,1,4.89-5.15c3,0,4.8,2.16,4.8,5.07V121h-7.41a2.53,2.53,0,0,0,2.68,2.69,2.49,2.49,0,0,0,2.47-1.65l2,.49a4.4,4.4,0,0,1-4.47,3A4.81,4.81,0,0,1,241.31,120.47Zm7.45-1.06a2.41,2.41,0,0,0-2.56-2.17,2.54,2.54,0,0,0-2.6,2.17Z"/><path class="cls-2" d="M252.19,124.24a1.39,1.39,0,0,1,1.39-1.36,1.36,1.36,0,0,1,1.36,1.36,1.34,1.34,0,0,1-1.36,1.34A1.37,1.37,0,0,1,252.19,124.24Z"/><path class="cls-2" d="M269.43,122.54h-5.66l-.95,2.8h-2.34l4.58-13.07h3.17l4.54,13.07h-2.39Zm-.71-2.07-2-6h-.18l-2,6Z"/><path class="cls-2" d="M272.79,120.45a5,5,0,0,1,5.06-5.13,4.65,4.65,0,0,1,4.78,3.65l-2.09.51a2.58,2.58,0,0,0-2.63-2.08,3.06,3.06,0,0,0,0,6.1,2.56,2.56,0,0,0,2.64-2.06l2.09.5a4.64,4.64,0,0,1-4.78,3.64A4.94,4.94,0,0,1,272.79,120.45Z"/><path class="cls-2" d="M283.77,120.45a5,5,0,0,1,5.06-5.13,4.65,4.65,0,0,1,4.78,3.65l-2.09.51a2.58,2.58,0,0,0-2.63-2.08,3.06,3.06,0,0,0,0,6.1,2.56,2.56,0,0,0,2.64-2.06l2.09.5a4.64,4.64,0,0,1-4.78,3.64A4.94,4.94,0,0,1,283.77,120.45Z"/><path class="cls-2" d="M294.75,120.47a4.92,4.92,0,0,1,4.89-5.15c3,0,4.8,2.16,4.8,5.07V121H297a2.54,2.54,0,0,0,2.69,2.69,2.48,2.48,0,0,0,2.46-1.65l2,.49a4.4,4.4,0,0,1-4.47,3A4.81,4.81,0,0,1,294.75,120.47Zm7.45-1.06a2.41,2.41,0,0,0-2.56-2.17,2.55,2.55,0,0,0-2.6,2.17Z"/><path class="cls-2" d="M305.75,123.4h1.83V113.3h-1.83v-2h4V123.4h1.83v1.94h-5.86Z"/><path class="cls-2" d="M312.73,120.47a4.92,4.92,0,0,1,4.89-5.15c3,0,4.8,2.16,4.8,5.07V121H315a2.54,2.54,0,0,0,2.69,2.69,2.48,2.48,0,0,0,2.46-1.65l2,.49a4.4,4.4,0,0,1-4.46,3A4.81,4.81,0,0,1,312.73,120.47Zm7.45-1.06a2.41,2.41,0,0,0-2.56-2.17,2.53,2.53,0,0,0-2.59,2.17Z"/><path class="cls-2" d="M324.2,115.56h2.18V117h.15a2.9,2.9,0,0,1,2.58-1.68h.73v2.2h-1c-1.6,0-2.46,1.14-2.46,3v4.83h-2.2Z"/><path class="cls-2" d="M330.47,120.45c0-3,1.94-5.13,4.56-5.13a3.49,3.49,0,0,1,3,1.43h.16v-1.19h2.21v7.49a.4.4,0,0,0,.45.43h.42v1.86h-1.66a1.34,1.34,0,0,1-1.4-1.23H338a3.25,3.25,0,0,1-2.93,1.47C332.45,125.58,330.47,123.42,330.47,120.45Zm7.73,0a2.77,2.77,0,0,0-2.74-3,2.81,2.81,0,0,0-2.75,3,2.76,2.76,0,1,0,5.49,0Z"/><path class="cls-2" d="M343.88,122.41V117.5h-1.7v-1.94H344v-2.75h2.09v2.75h2.76v1.94H346.1v4.89c0,.69.28,1,.95,1h1.7v2H347C345.13,125.34,343.88,124.48,343.88,122.41Z"/><path class="cls-2" d="M350.08,120.47a4.92,4.92,0,0,1,4.89-5.15c3,0,4.8,2.16,4.8,5.07V121h-7.41A2.53,2.53,0,0,0,355,123.7a2.49,2.49,0,0,0,2.47-1.65l2,.49a4.4,4.4,0,0,1-4.47,3A4.81,4.81,0,0,1,350.08,120.47Zm7.45-1.06a2.41,2.41,0,0,0-2.56-2.17,2.54,2.54,0,0,0-2.6,2.17Z"/><path class="cls-2" d="M360.89,120.45c0-2.91,1.89-5.13,4.52-5.13a3.54,3.54,0,0,1,3,1.49h.17v-5.47h2.21v14h-2.17v-1.15h-.17a3.48,3.48,0,0,1-2.91,1.39C362.91,125.58,360.89,123.42,360.89,120.45Zm7.75,0a2.8,2.8,0,0,0-2.77-3.08,3.09,3.09,0,1,0,2.77,3.08Z"/><path class="cls-2" d="M372.84,124.24a1.39,1.39,0,0,1,1.38-1.36,1.35,1.35,0,0,1,1.36,1.36,1.33,1.33,0,0,1-1.36,1.34A1.36,1.36,0,0,1,372.84,124.24Z"/></svg>